<svg xmlns="http://www.w3.org/2000/svg" xmlns:xlink="http://www.w3.org/1999/xlink" width="720" height="800" viewBox="0 0 190.50001 211.66667"><defs><pattern xlink:href="#a" id="b" patternTransform="scale(.26458)"/><pattern patternUnits="userSpaceOnUse" width="707" height="707" id="a"><image xlink:href="file:///home/zom-b/Projects/Java/Util%20(category)/FluidQOI/readme-files/0501_.jpg" width="707" height="707" preserveAspectRatio="none" stroke-width="2.667" image-rendering="optimizeSpeed"/></pattern></defs><path fill="url(#b)" d="M0 0h190.5v211.667H0z"/><path d="M111.125 89.958v52.917" fill="none" stroke="#000" stroke-width=".265"/><path style="line-height:normal;font-variant-ligatures:normal;font-variant-position:normal;font-variant-caps:normal;font-variant-numeric:normal;font-variant-alternates:normal;font-variant-east-asian:normal;font-feature-settings:normal;font-variation-settings:normal;text-indent:0;text-align:start;text-decoration-line:none;text-decoration-style:solid;text-decoration-color:#000000;text-transform:none;text-orientation:mixed;shape-padding:0;shape-margin:0;inline-size:0;isolation:auto;mix-blend-mode:normal" d="M111.126 142.356c.292 0 .53.237.53.53 0 .292-.238.53-.53.53-.293 0-.53-.238-.53-.53 0-.293.237-.53.53-.53z" color="#000" font-family="sans-serif" white-space="normal" overflow="visible" solid-color="#000000" fill-rule="evenodd"/><path d="M137.583 111.125v74.083M97.896 58.208V95.25" fill="none" stroke="#000" stroke-width=".265"/><path style="line-height:normal;font-variant-ligatures:normal;font-variant-position:normal;font-variant-caps:normal;font-variant-numeric:normal;font-variant-alternates:normal;font-variant-east-asian:normal;font-feature-settings:normal;font-variation-settings:normal;text-indent:0;text-align:start;text-decoration-line:none;text-decoration-style:solid;text-decoration-color:#000000;text-transform:none;text-orientation:mixed;shape-padding:0;shape-margin:0;inline-size:0;isolation:auto;mix-blend-mode:normal" d="M97.896 94.732c.293 0 .53.237.53.53 0 .292-.237.53-.53.53-.292 0-.53-.238-.53-.53 0-.293.238-.53.53-.53z" color="#000" font-family="sans-serif" white-space="normal" overflow="visible" solid-color="#000000" fill-rule="evenodd"/><path d="M44.98 58.208v127M92.604 26.458v15.875" fill="none" stroke="#000" stroke-width=".265"/><path style="line-height:normal;font-variant-ligatures:normal;font-variant-position:normal;font-variant-caps:normal;font-variant-numeric:normal;font-variant-alternates:normal;font-variant-east-asian:normal;font-feature-settings:normal;font-variation-settings:normal;text-indent:0;text-align:start;text-decoration-line:none;text-decoration-style:solid;text-decoration-color:#000000;text-transform:none;text-orientation:mixed;shape-padding:0;shape-margin:0;inline-size:0;isolation:auto;mix-blend-mode:normal" d="M97.896 73.565c.293 0 .53.237.53.53 0 .292-.237.53-.53.53-.292 0-.53-.238-.53-.53 0-.293.238-.53.53-.53z" color="#000" font-family="sans-serif" white-space="normal" overflow="visible" solid-color="#000000" fill-rule="evenodd"/><path d="M92.604 26.458l-2.65 2.65 5.296-.004zM44.98 58.208l-2.65 2.65 5.295-.004zM97.896 58.208l-2.65 2.65 5.296-.004zM137.583 111.125l-2.65 2.65 5.296-.004z" fill="#fff" stroke="#000" stroke-width=".265" stroke-linecap="round" stroke-linejoin="round"/><path style="line-height:normal;font-variant-ligatures:normal;font-variant-position:normal;font-variant-caps:normal;font-variant-numeric:normal;font-variant-alternates:normal;font-variant-east-asian:normal;font-feature-settings:normal;font-variation-settings:normal;text-indent:0;text-align:start;text-decoration-line:none;text-decoration-style:solid;text-decoration-color:#000000;text-transform:none;text-orientation:mixed;shape-padding:0;shape-margin:0;inline-size:0;isolation:auto;mix-blend-mode:normal" d="M92.604 41.815c.293 0 .53.237.53.53 0 .292-.237.53-.53.53-.292 0-.53-.238-.53-.53 0-.293.238-.53.53-.53zM60.854 41.815c.293 0 .53.237.53.53 0 .292-.237.53-.53.53-.292 0-.53-.238-.53-.53 0-.293.238-.53.53-.53zM137.584 164.562c-.292 0-.53-.238-.53-.53 0-.293.238-.53.53-.53.293 0 .53.237.53.53 0 .292-.237.53-.53.53zM111.124 122.228c-.292 0-.53-.238-.53-.53 0-.293.238-.53.53-.53.293 0 .53.237.53.53 0 .292-.237.53-.53.53zM137.584 184.69c.293 0 .53.236.53.53 0 .29-.237.53-.53.53-.292 0-.53-.24-.53-.53 0-.294.238-.53.53-.53zM44.98 184.69c.293 0 .53.236.53.53 0 .29-.237.53-.53.53-.292 0-.53-.24-.53-.53 0-.294.238-.53.53-.53zM44.98 122.228c-.292 0-.53-.238-.53-.53 0-.293.238-.53.53-.53.293 0 .53.237.53.53 0 .292-.237.53-.53.53zM44.98 143.395c-.292 0-.53-.238-.53-.53 0-.293.238-.53.53-.53.293 0 .53.237.53.53 0 .292-.237.53-.53.53zM44.98 164.562c-.292 0-.53-.238-.53-.53 0-.293.238-.53.53-.53.293 0 .53.237.53.53 0 .292-.237.53-.53.53z" color="#000" font-family="sans-serif" white-space="normal" overflow="visible" solid-color="#000000" fill-rule="evenodd"/><path d="M47.757 10.716h52.917V26.59H47.757z" fill="#fff" stroke="#000" stroke-width=".265" stroke-linecap="round" stroke-linejoin="round"/><text style="line-height:1.25;-inkscape-font-specification:'DejaVu Sans';text-align:center" x="74.218" y="20.194" font-size="4.233" font-family="DejaVu Sans" letter-spacing="0" word-spacing="0" text-anchor="middle" stroke-width=".265"><tspan x="74.218" y="20.194" style="-inkscape-font-specification:'DejaVu Sans';text-align:center"><tspan style="-inkscape-font-specification:'DejaVu Sans'" fill="#4d4d4d">FluidQOI</tspan>Codec</tspan></text><path d="M16.007 42.466h52.917V58.34H16.007z" fill="#fff" stroke="#000" stroke-width=".265" stroke-linecap="round" stroke-linejoin="round"/><text style="line-height:1.25;-inkscape-font-specification:'DejaVu Sans';text-align:center" x="42.468" y="51.944" font-size="4.233" font-family="DejaVu Sans" letter-spacing="0" word-spacing="0" text-anchor="middle" stroke-width=".265"><tspan x="42.468" y="51.944" style="-inkscape-font-specification:'DejaVu Sans';text-align:center"><tspan style="-inkscape-font-specification:'DejaVu Sans'" fill="#4d4d4d">FluidQOI</tspan>Encoder</tspan></text><path d="M79.507 42.466h52.917V58.34H79.507z" fill="#fff" stroke="#000" stroke-width=".265" stroke-linecap="round" stroke-linejoin="round"/><text style="line-height:1.25;-inkscape-font-specification:'DejaVu Sans';text-align:center" x="105.968" y="51.944" font-size="4.233" font-family="DejaVu Sans" letter-spacing="0" word-spacing="0" text-anchor="middle" stroke-width=".265"><tspan x="105.968" y="51.944" style="-inkscape-font-specification:'DejaVu Sans';text-align:center"><tspan style="-inkscape-font-specification:'DejaVu Sans'" fill="#4d4d4d">FluidQOI</tspan>Decoder</tspan></text><path d="M79.375 95.25h84.667v15.875H79.375zM79.375 74.084h84.667v15.874H79.375z" fill="#fff" stroke="#000" stroke-width=".265"/><text style="line-height:1.25;-inkscape-font-specification:'DejaVu Sans';text-align:center" x="121.843" y="83.694" font-size="4.233" font-family="DejaVu Sans" letter-spacing="0" word-spacing="0" text-anchor="middle" stroke-width=".265"><tspan x="121.843" y="83.694" style="-inkscape-font-specification:'DejaVu Sans';text-align:center"><tspan style="-inkscape-font-specification:'DejaVu Sans'" fill="#4d4d4d">FluidQOI</tspan>InterleavedByteDecoder</tspan></text><text style="line-height:1.25;-inkscape-font-specification:'DejaVu Sans';text-align:center" x="121.843" y="104.861" font-size="4.233" font-family="DejaVu Sans" letter-spacing="0" word-spacing="0" text-anchor="middle" stroke-width=".265"><tspan x="121.843" y="104.861" style="-inkscape-font-specification:'DejaVu Sans';text-align:center"><tspan style="-inkscape-font-specification:'DejaVu Sans'" fill="#4d4d4d">FluidQOI</tspan>PackedShortDecoder</tspan></text><path d="M90.09 121.84h63.5v15.876h-63.5z" fill="#fff" stroke="#000" stroke-width=".265" stroke-linecap="round" stroke-linejoin="round"/><text style="line-height:1.25;-inkscape-font-specification:'DejaVu Sans';text-align:center" x="121.843" y="131.319" font-size="4.233" font-family="DejaVu Sans" letter-spacing="0" word-spacing="0" text-anchor="middle" stroke-width=".265"><tspan x="121.843" y="131.319" style="-inkscape-font-specification:'DejaVu Sans';text-align:center"><tspan style="-inkscape-font-specification:'DejaVu Sans'" fill="#4d4d4d">FluidQOI</tspan>8888Decoder</tspan></text><path d="M90.09 143.007h63.5v15.875h-63.5z" fill="#fff" stroke="#000" stroke-width=".265" stroke-linecap="round" stroke-linejoin="round"/><text style="line-height:1.25;-inkscape-font-specification:'DejaVu Sans';text-align:center" x="121.843" y="152.486" font-size="4.233" font-family="DejaVu Sans" letter-spacing="0" word-spacing="0" text-anchor="middle" stroke-width=".265"><tspan x="121.843" y="152.486" style="-inkscape-font-specification:'DejaVu Sans';text-align:center"><tspan style="-inkscape-font-specification:'DejaVu Sans'" fill="#4d4d4d">FluidQOI</tspan>888Decoder</tspan></text><path d="M90.09 164.174h63.5v15.875h-63.5z" fill="#fff" stroke="#000" stroke-width=".265" stroke-linecap="round" stroke-linejoin="round"/><text style="line-height:1.25;-inkscape-font-specification:'DejaVu Sans';text-align:center" x="121.843" y="173.652" font-size="4.233" font-family="DejaVu Sans" letter-spacing="0" word-spacing="0" text-anchor="middle" stroke-width=".265"><tspan x="121.843" y="173.652" style="-inkscape-font-specification:'DejaVu Sans';text-align:center"><tspan style="-inkscape-font-specification:'DejaVu Sans'" fill="#4d4d4d">FluidQOI</tspan>565Decoder</tspan></text><path d="M90.09 185.34h63.5v15.876h-63.5z" fill="#fff" stroke="#000" stroke-width=".265" stroke-linecap="round" stroke-linejoin="round"/><text style="line-height:1.25;-inkscape-font-specification:'DejaVu Sans';text-align:center" x="121.843" y="194.819" font-size="4.233" font-family="DejaVu Sans" letter-spacing="0" word-spacing="0" text-anchor="middle" stroke-width=".265"><tspan x="121.843" y="194.819" style="-inkscape-font-specification:'DejaVu Sans';text-align:center"><tspan style="-inkscape-font-specification:'DejaVu Sans'" fill="#4d4d4d">FluidQOI</tspan>555Decoder</tspan></text><path d="M10.716 121.84h63.5v15.876h-63.5z" fill="#fff" stroke="#000" stroke-width=".265" stroke-linecap="round" stroke-linejoin="round"/><text style="line-height:1.25;-inkscape-font-specification:'DejaVu Sans';text-align:center" x="42.468" y="131.319" font-size="4.233" font-family="DejaVu Sans" letter-spacing="0" word-spacing="0" text-anchor="middle" stroke-width=".265"><tspan x="42.468" y="131.319" style="-inkscape-font-specification:'DejaVu Sans';text-align:center"><tspan style="-inkscape-font-specification:'DejaVu Sans'" fill="#4d4d4d">FluidQOI</tspan>8888Encoder</tspan></text><path d="M10.716 143.007h63.5v15.875h-63.5z" fill="#fff" stroke="#000" stroke-width=".265" stroke-linecap="round" stroke-linejoin="round"/><text style="line-height:1.25;-inkscape-font-specification:'DejaVu Sans';text-align:center" x="42.468" y="152.486" font-size="4.233" font-family="DejaVu Sans" letter-spacing="0" word-spacing="0" text-anchor="middle" stroke-width=".265"><tspan x="42.468" y="152.486" style="-inkscape-font-specification:'DejaVu Sans';text-align:center"><tspan style="-inkscape-font-specification:'DejaVu Sans'" fill="#4d4d4d">FluidQOI</tspan>888Encoder</tspan></text><path d="M10.716 164.174h63.5v15.875h-63.5z" fill="#fff" stroke="#000" stroke-width=".265" stroke-linecap="round" stroke-linejoin="round"/><text style="line-height:1.25;-inkscape-font-specification:'DejaVu Sans';text-align:center" x="42.468" y="173.652" font-size="4.233" font-family="DejaVu Sans" letter-spacing="0" word-spacing="0" text-anchor="middle" stroke-width=".265"><tspan x="42.468" y="173.652" style="-inkscape-font-specification:'DejaVu Sans';text-align:center"><tspan style="-inkscape-font-specification:'DejaVu Sans'" fill="#4d4d4d">FluidQOI</tspan>565Encoder</tspan></text><path d="M10.716 185.34h63.5v15.876h-63.5z" fill="#fff" stroke="#000" stroke-width=".265" stroke-linecap="round" stroke-linejoin="round"/><text style="line-height:1.25;-inkscape-font-specification:'DejaVu Sans';text-align:center" x="42.468" y="194.819" font-size="4.233" font-family="DejaVu Sans" letter-spacing="0" word-spacing="0" text-anchor="middle" stroke-width=".265"><tspan x="42.468" y="194.819" style="-inkscape-font-specification:'DejaVu Sans';text-align:center"><tspan style="-inkscape-font-specification:'DejaVu Sans'" fill="#4d4d4d">FluidQOI</tspan>555Encoder</tspan></text><text style="line-height:1.25;-inkscape-font-specification:'DejaVu Sans';text-align:center" x="29.222" y="64.203" font-size="4.233" font-family="DejaVu Sans" letter-spacing="0" word-spacing="0" text-anchor="middle" stroke-width=".265"><tspan x="29.222" y="64.203" style="-inkscape-font-specification:'DejaVu Sans';text-align:center">Contains</tspan><tspan x="29.222" y="69.494" style="-inkscape-font-specification:'DejaVu Sans';text-align:center">all the</tspan><tspan x="29.222" y="74.786" style="-inkscape-font-specification:'DejaVu Sans';text-align:center">different</tspan><tspan x="29.222" y="80.078" style="-inkscape-font-specification:'DejaVu Sans';text-align:center">OP writers</tspan></text><text style="line-height:1.25;-inkscape-font-specification:'DejaVu Sans';text-align:start" x="103.041" y="14.733" font-size="4.233" font-family="DejaVu Sans" letter-spacing="0" word-spacing="0" stroke-width=".265"><tspan x="103.041" y="14.733" style="-inkscape-font-specification:'DejaVu Sans';text-align:start">Stores <tspan style="-inkscape-font-specification:'Courier New';text-align:start" font-family="Courier New">indexLength</tspan></tspan></text><text style="line-height:1;-inkscape-font-specification:'DejaVu Sans';text-align:start" x="102.966" y="21.393" font-size="4.233" font-family="DejaVu Sans" letter-spacing="0" word-spacing="0" stroke-width=".265"><tspan x="102.966" y="21.393" style="-inkscape-font-specification:'DejaVu Sans';text-align:start">Keeps track of</tspan><tspan x="102.966" y="25.647" style="-inkscape-font-specification:'DejaVu Sans';text-align:start"><tspan style="-inkscape-font-specification:'Courier New';text-align:start" font-family="Courier New">recentColorsIndex</tspan></tspan></text><text style="line-height:1.25;-inkscape-font-specification:'DejaVu Sans';text-align:end" x="76.866" y="78.44" font-size="4.233" font-family="DejaVu Sans" letter-spacing="0" word-spacing="0" text-anchor="end" stroke-width=".265"><tspan x="76.866" y="78.44" style="-inkscape-font-specification:'DejaVu Sans';text-align:end">Works with</tspan><tspan x="76.866" y="83.731" style="-inkscape-font-specification:'DejaVu Sans';text-align:end">bytes for</tspan><tspan x="76.866" y="89.023" style="-inkscape-font-specification:'DejaVu Sans';text-align:end">each <tspan font-style="italic">channel</tspan></tspan></text><text style="line-height:1.25;-inkscape-font-specification:'DejaVu Sans';text-align:end" x="76.866" y="99.606" font-size="4.233" font-family="DejaVu Sans" letter-spacing="0" word-spacing="0" text-anchor="end" stroke-width=".265"><tspan x="76.866" y="99.606" style="-inkscape-font-specification:'DejaVu Sans';text-align:end">Works with</tspan><tspan x="76.866" y="104.898" style="-inkscape-font-specification:'DejaVu Sans';text-align:end">shorts for</tspan><tspan x="76.866" y="110.19" style="-inkscape-font-specification:'DejaVu Sans';text-align:end">each <tspan font-style="italic">pixel</tspan></tspan></text><text style="line-height:1.25;-inkscape-font-specification:'DejaVu Sans';text-align:center" x="131.087" y="68.864" font-size="4.233" font-family="DejaVu Sans" letter-spacing="0" word-spacing="0" text-anchor="middle" stroke-width=".265"><tspan x="131.087" y="68.864" style="-inkscape-font-specification:'DejaVu Sans';text-align:center">Contain the remaining readers</tspan></text><text style="line-height:1.25;-inkscape-font-specification:'DejaVu Sans';text-align:start" x="-190.407" y="83.731" transform="rotate(-90)" font-size="4.233" font-family="DejaVu Sans" letter-spacing="0" word-spacing="0" stroke-width=".265"><tspan x="-190.407" y="83.731" style="-inkscape-font-specification:'DejaVu Sans';text-align:start">Contsin as little as possible</tspan></text><text style="line-height:1;-inkscape-font-specification:'DejaVu Sans';text-align:start" x="134.855" y="45.606" font-size="4.233" font-family="DejaVu Sans" letter-spacing="0" word-spacing="0" stroke-width=".265"><tspan x="134.855" y="45.606" style="-inkscape-font-specification:'DejaVu Sans';text-align:start">Contains the reader for</tspan><tspan x="134.855" y="49.861" style="-inkscape-font-specification:'Courier New';text-align:start" font-family="Courier New">OP_REPEAT</tspan><tspan x="134.855" y="54.094" style="-inkscape-font-specification:'DejaVu Sans';text-align:start">Keeps track of</tspan><tspan x="134.855" y="58.348" style="-inkscape-font-specification:'Courier New';text-align:start" font-family="Courier New">repeatMultiplier</tspan></text><path fill="none" stroke="#4d4d4d" stroke-width=".265" stroke-linejoin="round" stroke-dasharray="1.06, 1.06" d="M47.757 71.57H166.82v42.333H47.757zM8.07 119.195h148.034v84.534H8.07z"/><text style="line-height:1;-inkscape-font-specification:'DejaVu Sans';text-align:center" x="36.925" y="35.497" font-size="4.233" font-family="DejaVu Sans" letter-spacing="0" word-spacing="0" text-anchor="middle" stroke-width=".265"><tspan x="36.925" y="35.497" style="-inkscape-font-specification:'DejaVu Sans';text-align:center">Keeps track of</tspan><tspan x="36.925" y="39.752" style="-inkscape-font-specification:'DejaVu Sans';text-align:center"><tspan style="-inkscape-font-specification:'Courier New';text-align:center" font-family="Courier New">repeatCount</tspan></tspan></text><path d="M60.854 26.458v15.875" fill="none" stroke="#000" stroke-width=".265"/><path d="M60.854 26.458l-2.65 2.65 5.296-.004zM111.125 89.958l-2.65 2.65 5.296-.004z" fill="#fff" stroke="#000" stroke-width=".265" stroke-linecap="round" stroke-linejoin="round"/></svg>