<svg xmlns="http://www.w3.org/2000/svg" width="720" height="800" viewBox="0 0 190.50001 211.66667"><defs><marker id="d" orient="auto" overflow="visible"><path d="M1.96 0c0 1.104-.896 2-2 2s-2-.896-2-2 .896-2 2-2 2 .896 2 2z" fill-rule="evenodd" stroke="#000" stroke-width=".4pt"/></marker><marker id="c" orient="auto" overflow="visible"><path d="M1.96 0c0 1.104-.896 2-2 2s-2-.896-2-2 .896-2 2-2 2 .896 2 2z" fill-rule="evenodd" stroke="#000" stroke-width=".4pt"/></marker><marker id="a" orient="auto" overflow="visible"><path d="M1.96 0c0 1.104-.896 2-2 2s-2-.896-2-2 .896-2 2-2 2 .896 2 2z" fill-rule="evenodd" stroke="#000" stroke-width=".4pt"/></marker><marker id="i" orient="auto" overflow="visible"><path d="M1.96 0c0 1.104-.896 2-2 2s-2-.896-2-2 .896-2 2-2 2 .896 2 2z" fill-rule="evenodd" stroke="#000" stroke-width=".4pt"/></marker><marker id="g" orient="auto" overflow="visible"><path d="M1.96 0c0 1.104-.896 2-2 2s-2-.896-2-2 .896-2 2-2 2 .896 2 2z" fill-rule="evenodd" stroke="#000" stroke-width=".4pt"/></marker><marker id="e" orient="auto" overflow="visible"><path d="M1.96 0c0 1.104-.896 2-2 2s-2-.896-2-2 .896-2 2-2 2 .896 2 2z" fill-rule="evenodd" stroke="#000" stroke-width=".4pt"/></marker><marker id="f" orient="auto" overflow="visible"><path d="M1.96 0c0 1.104-.896 2-2 2s-2-.896-2-2 .896-2 2-2 2 .896 2 2z" fill-rule="evenodd" stroke="#000" stroke-width=".4pt"/></marker><marker id="h" orient="auto" overflow="visible"><path d="M1.96 0c0 1.104-.896 2-2 2s-2-.896-2-2 .896-2 2-2 2 .896 2 2z" fill-rule="evenodd" stroke="#000" stroke-width=".4pt"/></marker><marker markerWidth="10" markerHeight="20" orient="auto" id="b"><path d="M0 0l-10-10v20z" fill="#bbb" stroke="#000" stroke-linecap="round" stroke-linejoin="round"/></marker><marker id="j" orient="auto" overflow="visible"><path d="M1.96 0c0 1.104-.896 2-2 2s-2-.896-2-2 .896-2 2-2 2 .896 2 2z" fill-rule="evenodd" stroke="#000" stroke-width=".4pt"/></marker><marker id="k" orient="auto" overflow="visible"><path d="M1.96 0c0 1.104-.896 2-2 2s-2-.896-2-2 .896-2 2-2 2 .896 2 2z" fill-rule="evenodd" stroke="#000" stroke-width=".4pt"/></marker><marker id="l" orient="auto" overflow="visible"><path d="M1.96 0c0 1.104-.896 2-2 2s-2-.896-2-2 .896-2 2-2 2 .896 2 2z" fill-rule="evenodd" stroke="#000" stroke-width=".4pt"/></marker></defs><path fill="#bbb" d="M0 0h190.5v211.667H0z"/><path d="M95.382 74.216V58.34" fill="none" stroke="#000" stroke-width=".265" marker-start="url(#a)" marker-end="url(#b)"/><path d="M90.09 42.466V26.59" fill="none" stroke="#000" stroke-width=".265" marker-start="url(#c)" marker-end="url(#b)"/><path d="M58.34 42.466V26.59" fill="none" stroke="#000" stroke-width=".265" marker-start="url(#d)" marker-end="url(#b)"/><path d="M135.07 164.174v10.583" fill="none" stroke="#000" stroke-width=".265" marker-start="url(#e)"/><path d="M108.61 121.84v10.584" fill="none" stroke="#000" stroke-width=".265" marker-start="url(#f)"/><path d="M135.07 185.34v-74.083" fill="none" stroke="#000" stroke-width=".265" marker-start="url(#g)" marker-end="url(#b)"/><path d="M108.61 143.007V90.09" fill="none" stroke="#000" stroke-width=".265" marker-start="url(#h)" marker-end="url(#b)"/><path d="M47.757 10.716h52.917V26.59H47.757z" fill="#bbb" stroke="#000" stroke-width=".265" stroke-linecap="round" stroke-linejoin="round"/><text style="line-height:1.25;-inkscape-font-specification:'DejaVu Sans';text-align:center" x="74.218" y="20.194" font-size="4.233" font-family="DejaVu Sans" letter-spacing="0" word-spacing="0" text-anchor="middle" stroke-width=".265"><tspan x="74.218" y="20.194" style="-inkscape-font-specification:'DejaVu Sans';text-align:center"><tspan style="-inkscape-font-specification:'DejaVu Sans'" fill="#4d4d4d">FluidQOI</tspan>Codec</tspan></text><path d="M16.007 42.466h52.917V58.34H16.007z" fill="#bbb" stroke="#000" stroke-width=".265" stroke-linecap="round" stroke-linejoin="round"/><text style="line-height:1.25;-inkscape-font-specification:'DejaVu Sans';text-align:center" x="42.468" y="51.944" font-size="4.233" font-family="DejaVu Sans" letter-spacing="0" word-spacing="0" text-anchor="middle" stroke-width=".265"><tspan x="42.468" y="51.944" style="-inkscape-font-specification:'DejaVu Sans';text-align:center"><tspan style="-inkscape-font-specification:'DejaVu Sans'" fill="#4d4d4d">FluidQOI</tspan>Encoder</tspan></text><path d="M79.507 42.466h52.917V58.34H79.507z" fill="#bbb" stroke="#000" stroke-width=".265" stroke-linecap="round" stroke-linejoin="round"/><text style="line-height:1.25;-inkscape-font-specification:'DejaVu Sans';text-align:center" x="105.968" y="51.944" font-size="4.233" font-family="DejaVu Sans" letter-spacing="0" word-spacing="0" text-anchor="middle" stroke-width=".265"><tspan x="105.968" y="51.944" style="-inkscape-font-specification:'DejaVu Sans';text-align:center"><tspan style="-inkscape-font-specification:'DejaVu Sans'" fill="#4d4d4d">FluidQOI</tspan>Decoder</tspan></text><path d="M79.507 74.216h84.667V90.09H79.507zM79.507 95.382h84.667v15.875H79.507z" fill="#bbb" stroke="#000" stroke-width=".265" stroke-linecap="round" stroke-linejoin="round"/><text style="line-height:1.25;-inkscape-font-specification:'DejaVu Sans';text-align:center" x="121.843" y="83.694" font-size="4.233" font-family="DejaVu Sans" letter-spacing="0" word-spacing="0" text-anchor="middle" stroke-width=".265"><tspan x="121.843" y="83.694" style="-inkscape-font-specification:'DejaVu Sans';text-align:center"><tspan style="-inkscape-font-specification:'DejaVu Sans'" fill="#4d4d4d">FluidQOI</tspan>InterleavedByteDecoder</tspan></text><text style="line-height:1.25;-inkscape-font-specification:'DejaVu Sans';text-align:center" x="121.843" y="104.861" font-size="4.233" font-family="DejaVu Sans" letter-spacing="0" word-spacing="0" text-anchor="middle" stroke-width=".265"><tspan x="121.843" y="104.861" style="-inkscape-font-specification:'DejaVu Sans';text-align:center"><tspan style="-inkscape-font-specification:'DejaVu Sans'" fill="#4d4d4d">FluidQOI</tspan>PackedShortDecoder</tspan></text><path d="M90.09 121.84h63.5v15.876h-63.5z" fill="#bbb" stroke="#000" stroke-width=".265" stroke-linecap="round" stroke-linejoin="round"/><text style="line-height:1.25;-inkscape-font-specification:'DejaVu Sans';text-align:center" x="121.843" y="131.319" font-size="4.233" font-family="DejaVu Sans" letter-spacing="0" word-spacing="0" text-anchor="middle" stroke-width=".265"><tspan x="121.843" y="131.319" style="-inkscape-font-specification:'DejaVu Sans';text-align:center"><tspan style="-inkscape-font-specification:'DejaVu Sans'" fill="#4d4d4d">FluidQOI</tspan>8888Decoder</tspan></text><path d="M90.09 143.007h63.5v15.875h-63.5z" fill="#bbb" stroke="#000" stroke-width=".265" stroke-linecap="round" stroke-linejoin="round"/><text style="line-height:1.25;-inkscape-font-specification:'DejaVu Sans';text-align:center" x="121.843" y="152.486" font-size="4.233" font-family="DejaVu Sans" letter-spacing="0" word-spacing="0" text-anchor="middle" stroke-width=".265"><tspan x="121.843" y="152.486" style="-inkscape-font-specification:'DejaVu Sans';text-align:center"><tspan style="-inkscape-font-specification:'DejaVu Sans'" fill="#4d4d4d">FluidQOI</tspan>888Decoder</tspan></text><path d="M90.09 164.174h63.5v15.875h-63.5z" fill="#bbb" stroke="#000" stroke-width=".265" stroke-linecap="round" stroke-linejoin="round"/><text style="line-height:1.25;-inkscape-font-specification:'DejaVu Sans';text-align:center" x="121.843" y="173.652" font-size="4.233" font-family="DejaVu Sans" letter-spacing="0" word-spacing="0" text-anchor="middle" stroke-width=".265"><tspan x="121.843" y="173.652" style="-inkscape-font-specification:'DejaVu Sans';text-align:center"><tspan style="-inkscape-font-specification:'DejaVu Sans'" fill="#4d4d4d">FluidQOI</tspan>565Decoder</tspan></text><path d="M90.09 185.34h63.5v15.876h-63.5z" fill="#bbb" stroke="#000" stroke-width=".265" stroke-linecap="round" stroke-linejoin="round"/><text style="line-height:1.25;-inkscape-font-specification:'DejaVu Sans';text-align:center" x="121.843" y="194.819" font-size="4.233" font-family="DejaVu Sans" letter-spacing="0" word-spacing="0" text-anchor="middle" stroke-width=".265"><tspan x="121.843" y="194.819" style="-inkscape-font-specification:'DejaVu Sans';text-align:center"><tspan style="-inkscape-font-specification:'DejaVu Sans'" fill="#4d4d4d">FluidQOI</tspan>555Decoder</tspan></text><path d="M42.466 185.34v-127" fill="none" stroke="#000" stroke-width=".265" marker-start="url(#i)" marker-end="url(#b)"/><path d="M42.466 121.84v10.584" fill="none" stroke="#000" stroke-width=".265" marker-start="url(#j)"/><path d="M42.466 143.007v10.584" fill="none" stroke="#000" stroke-width=".265" marker-start="url(#k)"/><path d="M42.466 164.174v10.583" fill="none" stroke="#000" stroke-width=".265" marker-start="url(#l)"/><path d="M10.716 121.84h63.5v15.876h-63.5z" fill="#bbb" stroke="#000" stroke-width=".265" stroke-linecap="round" stroke-linejoin="round"/><text style="line-height:1.25;-inkscape-font-specification:'DejaVu Sans';text-align:center" x="42.468" y="131.319" font-size="4.233" font-family="DejaVu Sans" letter-spacing="0" word-spacing="0" text-anchor="middle" stroke-width=".265"><tspan x="42.468" y="131.319" style="-inkscape-font-specification:'DejaVu Sans';text-align:center"><tspan style="-inkscape-font-specification:'DejaVu Sans'" fill="#4d4d4d">FluidQOI</tspan>8888Encoder</tspan></text><path d="M10.716 143.007h63.5v15.875h-63.5z" fill="#bbb" stroke="#000" stroke-width=".265" stroke-linecap="round" stroke-linejoin="round"/><text style="line-height:1.25;-inkscape-font-specification:'DejaVu Sans';text-align:center" x="42.468" y="152.486" font-size="4.233" font-family="DejaVu Sans" letter-spacing="0" word-spacing="0" text-anchor="middle" stroke-width=".265"><tspan x="42.468" y="152.486" style="-inkscape-font-specification:'DejaVu Sans';text-align:center"><tspan style="-inkscape-font-specification:'DejaVu Sans'" fill="#4d4d4d">FluidQOI</tspan>888Encoder</tspan></text><path d="M10.716 164.174h63.5v15.875h-63.5z" fill="#bbb" stroke="#000" stroke-width=".265" stroke-linecap="round" stroke-linejoin="round"/><text style="line-height:1.25;-inkscape-font-specification:'DejaVu Sans';text-align:center" x="42.468" y="173.652" font-size="4.233" font-family="DejaVu Sans" letter-spacing="0" word-spacing="0" text-anchor="middle" stroke-width=".265"><tspan x="42.468" y="173.652" style="-inkscape-font-specification:'DejaVu Sans';text-align:center"><tspan style="-inkscape-font-specification:'DejaVu Sans'" fill="#4d4d4d">FluidQOI</tspan>565Encoder</tspan></text><path d="M10.716 185.34h63.5v15.876h-63.5z" fill="#bbb" stroke="#000" stroke-width=".265" stroke-linecap="round" stroke-linejoin="round"/><text style="line-height:1.25;-inkscape-font-specification:'DejaVu Sans';text-align:center" x="42.468" y="194.819" font-size="4.233" font-family="DejaVu Sans" letter-spacing="0" word-spacing="0" text-anchor="middle" stroke-width=".265"><tspan x="42.468" y="194.819" style="-inkscape-font-specification:'DejaVu Sans';text-align:center"><tspan style="-inkscape-font-specification:'DejaVu Sans'" fill="#4d4d4d">FluidQOI</tspan>555Encoder</tspan></text><text style="line-height:1.25;-inkscape-font-specification:'DejaVu Sans';text-align:center" x="29.222" y="64.203" font-size="4.233" font-family="DejaVu Sans" letter-spacing="0" word-spacing="0" text-anchor="middle" stroke-width=".265"><tspan x="29.222" y="64.203" style="-inkscape-font-specification:'DejaVu Sans';text-align:center">Contains</tspan><tspan x="29.222" y="69.494" style="-inkscape-font-specification:'DejaVu Sans';text-align:center">all the</tspan><tspan x="29.222" y="74.786" style="-inkscape-font-specification:'DejaVu Sans';text-align:center">different</tspan><tspan x="29.222" y="80.078" style="-inkscape-font-specification:'DejaVu Sans';text-align:center">OP writers</tspan></text><text style="line-height:1.25;-inkscape-font-specification:'DejaVu Sans';text-align:start" x="103.041" y="14.733" font-size="4.233" font-family="DejaVu Sans" letter-spacing="0" word-spacing="0" stroke-width=".265"><tspan x="103.041" y="14.733" style="-inkscape-font-specification:'DejaVu Sans';text-align:start">Stores <tspan style="-inkscape-font-specification:'Courier New';text-align:start" font-family="Courier New">indexLength</tspan></tspan></text><text style="line-height:1;-inkscape-font-specification:'DejaVu Sans';text-align:start" x="102.966" y="21.393" font-size="4.233" font-family="DejaVu Sans" letter-spacing="0" word-spacing="0" stroke-width=".265"><tspan x="102.966" y="21.393" style="-inkscape-font-specification:'DejaVu Sans';text-align:start">Keeps track of</tspan><tspan x="102.966" y="25.647" style="-inkscape-font-specification:'DejaVu Sans';text-align:start"><tspan style="-inkscape-font-specification:'Courier New';text-align:start" font-family="Courier New">recentColorsIndex</tspan></tspan></text><text style="line-height:1.25;-inkscape-font-specification:'DejaVu Sans';text-align:end" x="76.866" y="78.44" font-size="4.233" font-family="DejaVu Sans" letter-spacing="0" word-spacing="0" text-anchor="end" stroke-width=".265"><tspan x="76.866" y="78.44" style="-inkscape-font-specification:'DejaVu Sans';text-align:end">Works with</tspan><tspan x="76.866" y="83.731" style="-inkscape-font-specification:'DejaVu Sans';text-align:end">bytes for</tspan><tspan x="76.866" y="89.023" style="-inkscape-font-specification:'DejaVu Sans';text-align:end">each <tspan font-style="italic">channel</tspan></tspan></text><text style="line-height:1.25;-inkscape-font-specification:'DejaVu Sans';text-align:end" x="76.866" y="99.606" font-size="4.233" font-family="DejaVu Sans" letter-spacing="0" word-spacing="0" text-anchor="end" stroke-width=".265"><tspan x="76.866" y="99.606" style="-inkscape-font-specification:'DejaVu Sans';text-align:end">Works with</tspan><tspan x="76.866" y="104.898" style="-inkscape-font-specification:'DejaVu Sans';text-align:end">shorts for</tspan><tspan x="76.866" y="110.19" style="-inkscape-font-specification:'DejaVu Sans';text-align:end">each <tspan font-style="italic">pixel</tspan></tspan></text><text style="line-height:1.25;-inkscape-font-specification:'DejaVu Sans';text-align:center" x="131.087" y="68.864" font-size="4.233" font-family="DejaVu Sans" letter-spacing="0" word-spacing="0" text-anchor="middle" stroke-width=".265"><tspan x="131.087" y="68.864" style="-inkscape-font-specification:'DejaVu Sans';text-align:center">Contain the remaining readers</tspan></text><text style="line-height:1.25;-inkscape-font-specification:'DejaVu Sans';text-align:start" x="-190.407" y="83.731" transform="rotate(-90)" font-size="4.233" font-family="DejaVu Sans" letter-spacing="0" word-spacing="0" stroke-width=".265"><tspan x="-190.407" y="83.731" style="-inkscape-font-specification:'DejaVu Sans';text-align:start">Contsin as little as possible</tspan></text><text style="line-height:1;-inkscape-font-specification:'DejaVu Sans';text-align:start" x="134.855" y="45.606" font-size="4.233" font-family="DejaVu Sans" letter-spacing="0" word-spacing="0" stroke-width=".265"><tspan x="134.855" y="45.606" style="-inkscape-font-specification:'DejaVu Sans';text-align:start">Contains the reader for</tspan><tspan x="134.855" y="49.861" style="-inkscape-font-specification:'Courier New';text-align:start" font-family="Courier New">OP_REPEAT</tspan><tspan x="134.855" y="54.094" style="-inkscape-font-specification:'DejaVu Sans';text-align:start">Keeps track of</tspan><tspan x="134.855" y="58.348" style="-inkscape-font-specification:'Courier New';text-align:start" font-family="Courier New">repeatMultiplier</tspan></text><text style="line-height:1.25;-inkscape-font-specification:'DejaVu Sans';text-align:start" x="235.258" y="69.494" font-size="4.233" font-family="DejaVu Sans" letter-spacing="0" word-spacing="0" stroke-width=".265"/><path fill="none" stroke="#4d4d4d" stroke-width=".265" stroke-linejoin="round" stroke-dasharray="1.06, 1.06" d="M47.757 71.57H166.82v42.333H47.757zM8.07 119.195h148.034v84.534H8.07z"/><text style="line-height:1;-inkscape-font-specification:'DejaVu Sans';text-align:center" x="36.925" y="35.497" font-size="4.233" font-family="DejaVu Sans" letter-spacing="0" word-spacing="0" text-anchor="middle" stroke-width=".265"><tspan x="36.925" y="35.497" style="-inkscape-font-specification:'DejaVu Sans';text-align:center">Keeps track of</tspan><tspan x="36.925" y="39.752" style="-inkscape-font-specification:'DejaVu Sans';text-align:center"><tspan style="-inkscape-font-specification:'Courier New';text-align:center" font-family="Courier New">repeatCount</tspan></tspan></text></svg>